<?xml version="1.0" encoding="UTF-8" standalone="no"?>
<svg
   version="1.1"
   id="svg2"
   xml:space="preserve"
   width="1118.5732"
   height="1182.36"
   viewBox="0 0 1118.5732 1182.36"
   sodipodi:docname="logo.svg"
   inkscape:version="1.1 (1:1.1+202105261517+ce6663b3b7)"
   xmlns:inkscape="http://www.inkscape.org/namespaces/inkscape"
   xmlns:sodipodi="http://sodipodi.sourceforge.net/DTD/sodipodi-0.dtd"
   xmlns="http://www.w3.org/2000/svg"
   xmlns:svg="http://www.w3.org/2000/svg"
   xmlns:rdf="http://www.w3.org/1999/02/22-rdf-syntax-ns#"
   xmlns:cc="http://creativecommons.org/ns#"
   xmlns:dc="http://purl.org/dc/elements/1.1/"><metadata
     id="metadata8"><rdf:RDF><cc:Work
         rdf:about=""><dc:format>image/svg+xml</dc:format><dc:type
           rdf:resource="http://purl.org/dc/dcmitype/StillImage" /></cc:Work></rdf:RDF></metadata><defs
     id="defs6" /><sodipodi:namedview
     pagecolor="#ffffff"
     bordercolor="#666666"
     borderopacity="1"
     objecttolerance="10"
     gridtolerance="10"
     guidetolerance="10"
     inkscape:pageopacity="0"
     inkscape:pageshadow="2"
     inkscape:window-width="898"
     inkscape:window-height="480"
     id="namedview4"
     inkscape:pagecheckerboard="0"
     showgrid="false"
     inkscape:zoom="0.73835381"
     inkscape:cx="558.67525"
     inkscape:cy="591.17999"
     inkscape:window-x="72"
     inkscape:window-y="27"
     inkscape:window-maximized="0"
     inkscape:current-layer="g10" /><g
     id="g10"
     inkscape:groupmode="layer"
     inkscape:label="ink_ext_XXXXXX"
     transform="matrix(1.3333333,0,0,-1.3333333,0,1182.36)"><g
       id="g12"
       transform="scale(0.1)"><path
         d="m 4625.74,7830.73 c -382.56,437.11 -469.49,802.5 -489.07,957.36 l -5.58,79.56 c 0,0 -1022.79,-1239.53 -274.8,-2094.17 382.57,-437.11 469.47,-802.5 489.08,-957.36 l 5.56,-79.58 c 0,0 1022.81,1239.53 274.81,2094.19"
         style="fill:#f79236;fill-opacity:1;fill-rule:nonzero;stroke:none"
         id="path14" /><path
         d="m 3223.24,7945.8 c 0,0 -342.16,-601.92 559.16,-1711.12 480.55,-730.47 0,-1402.9 0,-1402.9 -624.68,267.04 -1118.48,900.88 -1280.91,1494.4 -275.51,1054.45 721.75,1619.62 721.75,1619.62"
         style="fill:#f79236;fill-opacity:1;fill-rule:nonzero;stroke:none"
         id="path16" /><path
         d="M 5254.34,7513.21 C 5540.67,6181.75 4544.31,5202.24 4026.19,4764.37 c 290.37,-64.43 1263.92,28.64 1621.84,529.72 780.3,1088.1 -257.7,2183.33 -393.69,2219.12"
         style="fill:#f79236;fill-opacity:1;fill-rule:nonzero;stroke:none"
         id="path18" /><g
         id="g20"
         transform="scale(10)"><text
           transform="matrix(1,0,0,-1,0,144.717)"
           style="font-variant:normal;font-weight:500;font-size:353.833px;font-family:Avenir;-inkscape-font-specification:Avenir-Medium;writing-mode:lr-tb;fill:#f79236;fill-opacity:1;fill-rule:nonzero;stroke:none"
           id="text24"><tspan
             x="0 196.73116 393.46231 557.28699 642.2019"
             y="0"
             sodipodi:role="line"
             id="tspan22">Suzlu</tspan></text></g></g></g></svg>
